<svg width="247" height="136" viewBox="0 0 247 136" fill="none" xmlns="http://www.w3.org/2000/svg">
<path d="M0.280935 103.008L104.512 110.266L108.285 110.256L246.944 119.306L244.033 89.6066L153.045 96.9296L237.854 71.7048L210.884 38.2991L145.472 86.5764L192.029 18.4371L136.028 0.37972L126.139 86.6295L108.285 0.379726L60.0286 12.3798L108.229 89.9794L38.2765 30.2852L18.0688 55.3326L104.476 97.0629L5.87471 79.4149L0.280935 103.008Z" fill="url(#paint0_radial_231_71)"/>
<g filter="url(#filter0_d_231_71)">
<path d="M26.8069 83.3798H61.0286C63.2377 83.3798 65.0286 85.1706 65.0286 87.3798V128.38C65.0286 130.589 63.2377 132.38 61.0286 132.38H26.8069C23.2263 132.38 21.4494 128.036 24.0035 125.527L39.0598 110.733C40.6552 109.165 40.6552 106.594 39.0598 105.027L24.0035 90.233C21.4494 87.7235 23.2263 83.3798 26.8069 83.3798Z" fill="#B30D78"/>
<path d="M26.8069 81.3798H61.0286C63.2377 81.3798 65.0286 83.1706 65.0286 85.3798V126.38C65.0286 128.589 63.2377 130.38 61.0286 130.38H26.8069C23.2263 130.38 21.4494 126.036 24.0035 123.527L39.0598 108.733C40.6552 107.165 40.6552 104.594 39.0598 103.027L24.0035 88.233C21.4494 85.7235 23.2263 81.3798 26.8069 81.3798Z" fill="url(#paint1_linear_231_71)"/>
<path d="M215.25 83.3798H181.029C178.819 83.3798 177.029 85.1706 177.029 87.3798V128.38C177.029 130.589 178.819 132.38 181.029 132.38H215.25C218.831 132.38 220.608 128.036 218.054 125.527L202.997 110.733C201.402 109.165 201.402 106.594 202.997 105.027L218.054 90.233C220.608 87.7235 218.831 83.3798 215.25 83.3798Z" fill="#B30D78"/>
<path d="M215.25 81.3798H181.029C178.819 81.3798 177.029 83.1706 177.029 85.3798V126.38C177.029 128.589 178.819 130.38 181.029 130.38H215.25C218.831 130.38 220.608 126.036 218.054 123.527L202.997 108.733C201.402 107.165 201.402 104.594 202.997 103.027L218.054 88.233C220.608 85.7235 218.831 81.3798 215.25 81.3798Z" fill="url(#paint2_linear_231_71)"/>
<path d="M65.0286 126.88V117.38V114.38H53.0286V114.88L65.0286 126.88Z" fill="#B20D78"/>
<path d="M177.029 126.88V117.38V114.38L189.029 112.88C189.029 112.88 189.529 111.38 189.529 112.88L177.029 126.88Z" fill="#B20D78"/>
<rect x="49.0286" y="66.3798" width="143" height="51" rx="12" fill="#D71095"/>
<rect x="49.0286" y="64.3798" width="143" height="51" rx="12" fill="url(#paint3_linear_231_71)"/>
</g>
<mask id="path-10-outside-1_231_71" maskUnits="userSpaceOnUse" x="96.1511" y="19.3858" width="48" height="49" fill="black">
<rect fill="white" x="96.1511" y="19.3858" width="48" height="49"/>
<path fill-rule="evenodd" clip-rule="evenodd" d="M123.442 23.6156C121.975 20.6426 117.735 20.6426 116.268 23.6156L112.66 30.9264C112.077 32.107 110.951 32.9253 109.648 33.1146L101.58 34.2869C98.9717 34.666 97.609 37.2926 98.3534 39.5162C97.9096 40.8745 98.1745 42.4643 99.3634 43.6232L105.201 49.3139C105.691 49.7915 106.043 50.3785 106.236 51.0143L104.974 58.3763C104.86 59.0368 104.91 59.6655 105.086 60.2357L104.974 60.8898C104.413 64.1574 107.843 66.6492 110.778 65.1065L117.994 61.3127C119.159 60.7001 120.551 60.7001 121.716 61.3127L128.933 65.1065C131.867 66.6492 135.297 64.1574 134.736 60.8898L134.624 60.2357C134.8 59.6655 134.85 59.0368 134.736 58.3763L133.474 51.0143C133.667 50.3785 134.019 49.7915 134.509 49.3139L140.347 43.6232C141.536 42.4643 141.801 40.8745 141.357 39.5162C142.101 37.2926 140.738 34.666 138.13 34.2869L130.062 33.1146C128.759 32.9253 127.633 32.107 127.05 30.9264L123.442 23.6156Z"/>
</mask>
<path fill-rule="evenodd" clip-rule="evenodd" d="M123.442 23.6156C121.975 20.6426 117.735 20.6426 116.268 23.6156L112.66 30.9264C112.077 32.107 110.951 32.9253 109.648 33.1146L101.58 34.2869C98.9717 34.666 97.609 37.2926 98.3534 39.5162C97.9096 40.8745 98.1745 42.4643 99.3634 43.6232L105.201 49.3139C105.691 49.7915 106.043 50.3785 106.236 51.0143L104.974 58.3763C104.86 59.0368 104.91 59.6655 105.086 60.2357L104.974 60.8898C104.413 64.1574 107.843 66.6492 110.778 65.1065L117.994 61.3127C119.159 60.7001 120.551 60.7001 121.716 61.3127L128.933 65.1065C131.867 66.6492 135.297 64.1574 134.736 60.8898L134.624 60.2357C134.8 59.6655 134.85 59.0368 134.736 58.3763L133.474 51.0143C133.667 50.3785 134.019 49.7915 134.509 49.3139L140.347 43.6232C141.536 42.4643 141.801 40.8745 141.357 39.5162C142.101 37.2926 140.738 34.666 138.13 34.2869L130.062 33.1146C128.759 32.9253 127.633 32.107 127.05 30.9264L123.442 23.6156Z" fill="url(#paint4_linear_231_71)"/>
<path d="M116.268 23.6156L118.062 24.5007L118.062 24.5007L116.268 23.6156ZM123.442 23.6156L125.235 22.7305L125.235 22.7305L123.442 23.6156ZM112.66 30.9264L110.867 30.0413L110.867 30.0413L112.66 30.9264ZM109.648 33.1146L109.361 31.1354L109.361 31.1354L109.648 33.1146ZM101.58 34.2869L101.868 36.2661L101.868 36.2661L101.58 34.2869ZM98.3534 39.5162L100.254 40.1375L100.46 39.5086L100.25 38.8813L98.3534 39.5162ZM99.3634 43.6232L100.759 42.191L100.759 42.191L99.3634 43.6232ZM105.201 49.3139L106.598 47.8817L106.598 47.8817L105.201 49.3139ZM106.236 51.0143L108.208 51.3524L108.288 50.8856L108.15 50.4324L106.236 51.0143ZM104.974 58.3763L106.945 58.7144L106.945 58.7144L104.974 58.3763ZM105.086 60.2357L107.057 60.5738L107.138 60.1031L106.997 59.6467L105.086 60.2357ZM104.974 60.8898L103.002 60.5517L103.002 60.5517L104.974 60.8898ZM110.778 65.1065L111.708 66.8767L111.708 66.8767L110.778 65.1065ZM117.994 61.3127L117.063 59.5424L117.063 59.5424L117.994 61.3127ZM121.716 61.3127L120.786 63.0829L120.786 63.0829L121.716 61.3127ZM128.933 65.1065L128.002 66.8767L128.002 66.8767L128.933 65.1065ZM134.736 60.8898L132.765 61.2279L132.765 61.2279L134.736 60.8898ZM134.624 60.2357L132.713 59.6467L132.572 60.1031L132.653 60.5738L134.624 60.2357ZM134.736 58.3763L136.708 58.0382L136.708 58.0382L134.736 58.3763ZM133.474 51.0143L131.56 50.4324L131.422 50.8856L131.503 51.3524L133.474 51.0143ZM134.509 49.3139L133.113 47.8817L133.113 47.8817L134.509 49.3139ZM140.347 43.6232L141.743 45.0554L141.743 45.0554L140.347 43.6232ZM141.357 39.5162L139.46 38.8813L139.25 39.5086L139.456 40.1375L141.357 39.5162ZM138.13 34.2869L137.842 36.2661L137.842 36.2661L138.13 34.2869ZM130.062 33.1146L129.774 35.0938L129.774 35.0938L130.062 33.1146ZM127.05 30.9264L125.257 31.8115L125.257 31.8115L127.05 30.9264ZM118.062 24.5007C118.795 23.0142 120.915 23.0142 121.649 24.5007L125.235 22.7305C123.035 18.271 116.676 18.271 114.475 22.7305L118.062 24.5007ZM114.453 31.8115L118.062 24.5007L114.475 22.7305L110.867 30.0413L114.453 31.8115ZM109.936 35.0938C111.89 34.8098 113.58 33.5824 114.453 31.8115L110.867 30.0413C110.575 30.6316 110.012 31.0407 109.361 31.1354L109.936 35.0938ZM101.868 36.2661L109.936 35.0938L109.361 31.1354L101.293 32.3077L101.868 36.2661ZM100.25 38.8813C99.8707 37.7485 100.587 36.4523 101.868 36.2661L101.293 32.3077C97.3564 32.8797 95.3472 36.8366 96.4569 40.1512L100.25 38.8813ZM100.759 42.191C100.163 41.6096 100.027 40.8347 100.254 40.1375L96.4523 38.895C95.7925 40.9143 96.1861 43.319 97.9674 45.0554L100.759 42.191ZM106.598 47.8817L100.759 42.191L97.9674 45.0554L103.805 50.746L106.598 47.8817ZM108.15 50.4324C107.86 49.4789 107.332 48.5981 106.598 47.8817L103.805 50.746C104.05 50.9849 104.226 51.2781 104.323 51.5963L108.15 50.4324ZM106.945 58.7144L108.208 51.3524L104.265 50.6762L103.002 58.0382L106.945 58.7144ZM106.997 59.6467C106.914 59.3754 106.885 59.0642 106.945 58.7144L103.002 58.0382C102.836 59.0093 102.907 59.9557 103.175 60.8247L106.997 59.6467ZM106.945 61.2279L107.057 60.5738L103.115 59.8976L103.002 60.5517L106.945 61.2279ZM109.847 63.3362C108.38 64.1076 106.665 62.8617 106.945 61.2279L103.002 60.5517C102.162 65.4531 107.306 69.1909 111.708 66.8767L109.847 63.3362ZM117.063 59.5424L109.847 63.3362L111.708 66.8767L118.924 63.0829L117.063 59.5424ZM122.647 59.5424C120.899 58.6235 118.811 58.6235 117.063 59.5424L118.924 63.0829C119.507 62.7766 120.203 62.7766 120.786 63.0829L122.647 59.5424ZM129.863 63.3362L122.647 59.5424L120.786 63.0829L128.002 66.8767L129.863 63.3362ZM132.765 61.2279C133.045 62.8617 131.331 64.1076 129.863 63.3362L128.002 66.8767C132.404 69.1909 137.548 65.4531 136.708 60.5517L132.765 61.2279ZM132.653 60.5738L132.765 61.2279L136.708 60.5517L136.595 59.8976L132.653 60.5738ZM132.765 58.7144C132.825 59.0642 132.797 59.3754 132.713 59.6467L136.536 60.8248C136.803 59.9557 136.874 59.0093 136.708 58.0382L132.765 58.7144ZM131.503 51.3524L132.765 58.7144L136.708 58.0382L135.445 50.6763L131.503 51.3524ZM133.113 47.8817C132.378 48.5981 131.85 49.4789 131.56 50.4324L135.387 51.5963C135.484 51.2781 135.66 50.9849 135.905 50.746L133.113 47.8817ZM138.951 42.191L133.113 47.8817L135.905 50.746L141.743 45.0554L138.951 42.191ZM139.456 40.1375C139.684 40.8347 139.547 41.6096 138.951 42.191L141.743 45.0554C143.524 43.319 143.918 40.9143 143.258 38.895L139.456 40.1375ZM137.842 36.2661C139.123 36.4523 139.839 37.7485 139.46 38.8813L143.253 40.1512C144.363 36.8366 142.354 32.8797 138.417 32.3077L137.842 36.2661ZM129.774 35.0938L137.842 36.2661L138.417 32.3077L130.349 31.1354L129.774 35.0938ZM125.257 31.8115C126.131 33.5824 127.82 34.8098 129.774 35.0938L130.349 31.1354C129.698 31.0407 129.135 30.6316 128.844 30.0413L125.257 31.8115ZM121.649 24.5007L125.257 31.8115L128.844 30.0413L125.235 22.7305L121.649 24.5007Z" fill="white" mask="url(#path-10-outside-1_231_71)"/>
<g filter="url(#filter1_d_231_71)">
<path d="M116.442 23.6477C117.909 20.6747 122.148 20.6747 123.615 23.6477L127.224 30.9585C127.806 32.1391 128.932 32.9574 130.235 33.1467L138.303 34.319C141.584 34.7958 142.894 38.8277 140.52 41.1418L134.682 46.8325C133.739 47.7514 133.309 49.0754 133.532 50.373L134.91 58.4084C135.47 61.676 132.041 64.1679 129.106 62.6251L121.89 58.8313C120.725 58.2187 119.332 58.2187 118.167 58.8313L110.951 62.6251C108.016 64.1679 104.587 61.676 105.147 58.4084L106.525 50.373C106.748 49.0754 106.318 47.7514 105.375 46.8325L99.5369 41.1418C97.1628 38.8277 98.4729 34.7958 101.754 34.319L109.822 33.1467C111.125 32.9574 112.251 32.1391 112.833 30.9585L116.442 23.6477Z" fill="url(#paint5_linear_231_71)"/>
</g>
<mask id="path-13-outside-2_231_71" maskUnits="userSpaceOnUse" x="60.6033" y="36.3913" width="39" height="40" fill="black">
<rect fill="white" x="60.6033" y="36.3913" width="39" height="40"/>
<path fill-rule="evenodd" clip-rule="evenodd" d="M83.5116 40.6211C82.0443 37.6481 77.805 37.6481 76.3377 40.6211L74.0839 45.1878C73.5012 46.3684 72.375 47.1866 71.0721 47.376L66.0324 48.1083C63.5044 48.4756 62.1465 50.9538 62.7426 53.1305C62.3915 54.4397 62.688 55.9264 63.8156 57.0256L67.4623 60.5803C67.9928 61.0973 68.361 61.7426 68.5419 62.4393L67.7519 67.0456C67.6489 67.6459 67.6806 68.22 67.8192 68.7477L67.7519 69.1402C67.1914 72.4078 70.6211 74.8996 73.5557 73.3569L78.0633 70.9871C79.2286 70.3744 80.6207 70.3744 81.786 70.9871L86.2937 73.3569C89.2282 74.8996 92.6579 72.4078 92.0975 69.1401L92.0301 68.7477C92.1687 68.22 92.2004 67.6459 92.0975 67.0456L91.3074 62.4393C91.4883 61.7426 91.8565 61.0973 92.387 60.5803L96.0337 57.0256C97.1614 55.9264 97.4578 54.4397 97.1067 53.1305C97.7028 50.9538 96.3449 48.4756 93.8169 48.1083L88.7772 47.376C87.4743 47.1866 86.3481 46.3684 85.7654 45.1878L83.5116 40.6211Z"/>
</mask>
<path fill-rule="evenodd" clip-rule="evenodd" d="M83.5116 40.6211C82.0443 37.6481 77.805 37.6481 76.3377 40.6211L74.0839 45.1878C73.5012 46.3684 72.375 47.1866 71.0721 47.376L66.0324 48.1083C63.5044 48.4756 62.1465 50.9538 62.7426 53.1305C62.3915 54.4397 62.688 55.9264 63.8156 57.0256L67.4623 60.5803C67.9928 61.0973 68.361 61.7426 68.5419 62.4393L67.7519 67.0456C67.6489 67.6459 67.6806 68.22 67.8192 68.7477L67.7519 69.1402C67.1914 72.4078 70.6211 74.8996 73.5557 73.3569L78.0633 70.9871C79.2286 70.3744 80.6207 70.3744 81.786 70.9871L86.2937 73.3569C89.2282 74.8996 92.6579 72.4078 92.0975 69.1401L92.0301 68.7477C92.1687 68.22 92.2004 67.6459 92.0975 67.0456L91.3074 62.4393C91.4883 61.7426 91.8565 61.0973 92.387 60.5803L96.0337 57.0256C97.1614 55.9264 97.4578 54.4397 97.1067 53.1305C97.7028 50.9538 96.3449 48.4756 93.8169 48.1083L88.7772 47.376C87.4743 47.1866 86.3481 46.3684 85.7654 45.1878L83.5116 40.6211Z" fill="url(#paint6_linear_231_71)"/>
<path d="M76.3377 40.6211L78.1312 41.5062L78.1312 41.5062L76.3377 40.6211ZM83.5116 40.6211L81.7181 41.5062L81.7181 41.5062L83.5116 40.6211ZM74.0839 45.1878L75.8774 46.0729L75.8774 46.0729L74.0839 45.1878ZM71.0721 47.376L70.7845 45.3967L70.7845 45.3967L71.0721 47.376ZM66.0324 48.1083L66.32 50.0875L66.0324 48.1083ZM62.7426 53.1305L64.6743 53.6485L64.8147 53.125L64.6716 52.6022L62.7426 53.1305ZM63.8156 57.0256L62.4196 58.4578L62.4196 58.4578L63.8156 57.0256ZM67.4623 60.5803L68.8584 59.1481L68.8584 59.1481L67.4623 60.5803ZM68.5419 62.4393L70.5131 62.7774L70.5859 62.3531L70.4777 61.9365L68.5419 62.4393ZM67.7519 67.0456L65.7806 66.7075L65.7806 66.7075L67.7519 67.0456ZM67.8192 68.7477L69.7904 69.0858L69.8636 68.6588L69.7536 68.2398L67.8192 68.7477ZM67.7519 69.1402L65.7806 68.8021L65.7806 68.8021L67.7519 69.1402ZM73.5557 73.3569L72.625 71.5866L72.625 71.5866L73.5557 73.3569ZM78.0633 70.9871L78.994 72.7573L78.994 72.7573L78.0633 70.9871ZM81.786 70.9871L80.8553 72.7573L80.8553 72.7573L81.786 70.9871ZM86.2937 73.3569L87.2243 71.5866L87.2243 71.5866L86.2937 73.3569ZM92.0975 69.1401L94.0687 68.8021L94.0687 68.8021L92.0975 69.1401ZM92.0301 68.7477L90.0957 68.2398L89.9857 68.6588L90.0589 69.0858L92.0301 68.7477ZM92.0975 67.0456L90.1262 67.3837L90.1262 67.3837L92.0975 67.0456ZM91.3074 62.4393L89.3716 61.9365L89.2634 62.3531L89.3362 62.7774L91.3074 62.4393ZM92.387 60.5803L93.783 62.0125L93.783 62.0125L92.387 60.5803ZM96.0337 57.0256L94.6377 55.5934L94.6377 55.5934L96.0337 57.0256ZM97.1067 53.1305L95.1778 52.6022L95.0346 53.125L95.175 53.6485L97.1067 53.1305ZM93.8169 48.1083L94.1045 46.1291L94.1045 46.1291L93.8169 48.1083ZM88.7772 47.376L89.0648 45.3967L88.7772 47.376ZM85.7654 45.1878L87.5589 44.3027L87.5589 44.3027L85.7654 45.1878ZM78.1312 41.5062C78.8648 40.0197 80.9845 40.0197 81.7181 41.5062L85.3051 39.7359C83.1042 35.2764 76.7451 35.2765 74.5442 39.7359L78.1312 41.5062ZM75.8774 46.0729L78.1312 41.5062L74.5442 39.7359L72.2904 44.3027L75.8774 46.0729ZM71.3597 49.3552C73.314 49.0712 75.0034 47.8438 75.8774 46.0729L72.2904 44.3027C71.9991 44.8929 71.436 45.3021 70.7845 45.3967L71.3597 49.3552ZM66.32 50.0875L71.3597 49.3552L70.7845 45.3967L65.7448 46.129L66.32 50.0875ZM64.6716 52.6022C64.3662 51.4873 65.0793 50.2678 66.32 50.0875L65.7448 46.129C61.9295 46.6835 59.9267 50.4204 60.8136 53.6588L64.6716 52.6022ZM65.2116 55.5934C64.6435 55.0396 64.4953 54.316 64.6743 53.6485L60.8108 52.6124C60.2876 54.5634 60.7324 56.8132 62.4196 58.4578L65.2116 55.5934ZM68.8584 59.1481L65.2116 55.5934L62.4196 58.4578L66.0663 62.0125L68.8584 59.1481ZM70.4777 61.9365C70.2064 60.8919 69.6541 59.9237 68.8584 59.1481L66.0663 62.0125C66.3315 62.271 66.5155 62.5933 66.6061 62.9421L70.4777 61.9365ZM69.7231 67.3837L70.5131 62.7774L66.5707 62.1012L65.7806 66.7075L69.7231 67.3837ZM69.7536 68.2398C69.6875 67.9882 69.6684 67.7025 69.7231 67.3837L65.7806 66.7075C65.6294 67.5892 65.6737 68.4518 65.8847 69.2556L69.7536 68.2398ZM69.7231 69.4782L69.7904 69.0858L65.8479 68.4096L65.7806 68.8021L69.7231 69.4782ZM72.625 71.5866C71.1577 72.358 69.4428 71.1121 69.7231 69.4782L65.7806 68.8021C64.94 73.7035 70.0846 77.4413 74.4863 75.1271L72.625 71.5866ZM77.1326 69.2168L72.625 71.5866L74.4863 75.1271L78.994 72.7573L77.1326 69.2168ZM82.7167 69.2168C80.9688 68.2978 78.8805 68.2978 77.1326 69.2168L78.994 72.7573C79.5766 72.451 80.2727 72.451 80.8553 72.7573L82.7167 69.2168ZM87.2243 71.5866L82.7167 69.2168L80.8553 72.7573L85.363 75.1271L87.2243 71.5866ZM90.1262 69.4782C90.4065 71.1121 88.6916 72.358 87.2243 71.5866L85.363 75.1271C89.7647 77.4413 94.9093 73.7035 94.0687 68.8021L90.1262 69.4782ZM90.0589 69.0858L90.1262 69.4782L94.0687 68.8021L94.0014 68.4096L90.0589 69.0858ZM90.1262 67.3837C90.1809 67.7025 90.1618 67.9882 90.0957 68.2398L93.9646 69.2556C94.1756 68.4518 94.2199 67.5892 94.0687 66.7075L90.1262 67.3837ZM89.3362 62.7774L90.1262 67.3837L94.0687 66.7075L93.2786 62.1012L89.3362 62.7774ZM90.9909 59.1481C90.1952 59.9237 89.6429 60.8919 89.3716 61.9365L93.2432 62.9421C93.3338 62.5933 93.5178 62.271 93.783 62.0125L90.9909 59.1481ZM94.6377 55.5934L90.9909 59.1481L93.783 62.0125L97.4297 58.4578L94.6377 55.5934ZM95.175 53.6485C95.354 54.316 95.2058 55.0396 94.6377 55.5934L97.4297 58.4578C99.1169 56.8132 99.5617 54.5634 99.0385 52.6124L95.175 53.6485ZM93.5293 50.0875C94.77 50.2678 95.4831 51.4873 95.1778 52.6022L99.0357 53.6588C99.9226 50.4204 97.9198 46.6835 94.1045 46.1291L93.5293 50.0875ZM88.4896 49.3552L93.5293 50.0875L94.1045 46.1291L89.0648 45.3967L88.4896 49.3552ZM83.9719 46.0729C84.8459 47.8438 86.5353 49.0712 88.4896 49.3552L89.0648 45.3967C88.4133 45.3021 87.8502 44.8929 87.5589 44.3027L83.9719 46.0729ZM81.7181 41.5062L83.9719 46.0729L87.5589 44.3027L85.3051 39.7359L81.7181 41.5062Z" fill="white" mask="url(#path-13-outside-2_231_71)"/>
<g filter="url(#filter2_d_231_71)">
<path d="M76.4822 40.6477C77.9494 37.6747 82.1888 37.6747 83.656 40.6477L85.9099 45.2144C86.4925 46.395 87.6188 47.2133 88.9216 47.4026L93.9613 48.1349C97.2422 48.6117 98.5522 52.6435 96.1782 54.9577L92.5314 58.5124C91.5887 59.4313 91.1585 60.7553 91.381 62.0529L92.2419 67.0722C92.8023 70.3399 89.3726 72.8317 86.4381 71.289L81.9305 68.9191C80.7652 68.3065 79.373 68.3065 78.2077 68.9191L73.7001 71.289C70.7656 72.8317 67.3359 70.3399 67.8963 67.0722L68.7572 62.0529C68.9797 60.7553 68.5495 59.4313 67.6068 58.5124L63.9601 54.9577C61.586 52.6435 62.896 48.6117 66.1769 48.1349L71.2166 47.4026C72.5194 47.2133 73.6457 46.395 74.2283 45.2144L76.4822 40.6477Z" fill="url(#paint7_linear_231_71)"/>
</g>
<mask id="path-16-outside-3_231_71" maskUnits="userSpaceOnUse" x="139.603" y="36.3913" width="39" height="40" fill="black">
<rect fill="white" x="139.603" y="36.3913" width="39" height="40"/>
<path fill-rule="evenodd" clip-rule="evenodd" d="M162.512 40.6211C161.044 37.6481 156.805 37.6481 155.338 40.6211L153.084 45.1878C152.501 46.3684 151.375 47.1866 150.072 47.376L145.032 48.1083C142.504 48.4756 141.146 50.9538 141.743 53.1305C141.391 54.4397 141.688 55.9264 142.816 57.0256L146.462 60.5803C146.993 61.0973 147.361 61.7426 147.542 62.4393L146.752 67.0456C146.649 67.6459 146.681 68.22 146.819 68.7477L146.752 69.1402C146.191 72.4078 149.621 74.8996 152.556 73.3569L157.063 70.9871C158.229 70.3744 159.621 70.3744 160.786 70.9871L165.294 73.3569C168.228 74.8996 171.658 72.4078 171.097 69.1401L171.03 68.7477C171.169 68.22 171.2 67.6459 171.097 67.0456L170.307 62.4393C170.488 61.7426 170.857 61.0973 171.387 60.5803L175.034 57.0256C176.161 55.9264 176.458 54.4397 176.107 53.1305C176.703 50.9538 175.345 48.4756 172.817 48.1083L167.777 47.376C166.474 47.1866 165.348 46.3684 164.765 45.1878L162.512 40.6211Z"/>
</mask>
<path fill-rule="evenodd" clip-rule="evenodd" d="M162.512 40.6211C161.044 37.6481 156.805 37.6481 155.338 40.6211L153.084 45.1878C152.501 46.3684 151.375 47.1866 150.072 47.376L145.032 48.1083C142.504 48.4756 141.146 50.9538 141.743 53.1305C141.391 54.4397 141.688 55.9264 142.816 57.0256L146.462 60.5803C146.993 61.0973 147.361 61.7426 147.542 62.4393L146.752 67.0456C146.649 67.6459 146.681 68.22 146.819 68.7477L146.752 69.1402C146.191 72.4078 149.621 74.8996 152.556 73.3569L157.063 70.9871C158.229 70.3744 159.621 70.3744 160.786 70.9871L165.294 73.3569C168.228 74.8996 171.658 72.4078 171.097 69.1401L171.03 68.7477C171.169 68.22 171.2 67.6459 171.097 67.0456L170.307 62.4393C170.488 61.7426 170.857 61.0973 171.387 60.5803L175.034 57.0256C176.161 55.9264 176.458 54.4397 176.107 53.1305C176.703 50.9538 175.345 48.4756 172.817 48.1083L167.777 47.376C166.474 47.1866 165.348 46.3684 164.765 45.1878L162.512 40.6211Z" fill="url(#paint8_linear_231_71)"/>
<path d="M155.338 40.6211L157.131 41.5062L157.131 41.5062L155.338 40.6211ZM162.512 40.6211L160.718 41.5062L160.718 41.5062L162.512 40.6211ZM153.084 45.1878L154.877 46.0729L154.877 46.0729L153.084 45.1878ZM150.072 47.376L149.785 45.3967L149.785 45.3967L150.072 47.376ZM145.032 48.1083L145.32 50.0875L145.032 48.1083ZM141.743 53.1305L143.674 53.6485L143.815 53.125L143.672 52.6022L141.743 53.1305ZM142.816 57.0256L141.42 58.4578L141.42 58.4578L142.816 57.0256ZM146.462 60.5803L147.858 59.1481L147.858 59.1481L146.462 60.5803ZM147.542 62.4393L149.513 62.7774L149.586 62.3531L149.478 61.9365L147.542 62.4393ZM146.752 67.0456L144.781 66.7075L144.781 66.7075L146.752 67.0456ZM146.819 68.7477L148.79 69.0858L148.864 68.6588L148.754 68.2398L146.819 68.7477ZM146.752 69.1402L144.781 68.8021L144.781 68.8021L146.752 69.1402ZM152.556 73.3569L151.625 71.5866L151.625 71.5866L152.556 73.3569ZM157.063 70.9871L157.994 72.7573L157.994 72.7573L157.063 70.9871ZM160.786 70.9871L159.855 72.7573L159.855 72.7573L160.786 70.9871ZM165.294 73.3569L166.224 71.5866L166.224 71.5866L165.294 73.3569ZM171.097 69.1401L173.069 68.8021L173.069 68.8021L171.097 69.1401ZM171.03 68.7477L169.096 68.2398L168.986 68.6588L169.059 69.0858L171.03 68.7477ZM171.097 67.0456L169.126 67.3837L169.126 67.3837L171.097 67.0456ZM170.307 62.4393L168.372 61.9365L168.263 62.3531L168.336 62.7774L170.307 62.4393ZM171.387 60.5803L172.783 62.0125L172.783 62.0125L171.387 60.5803ZM175.034 57.0256L173.638 55.5934L173.638 55.5934L175.034 57.0256ZM176.107 53.1305L174.178 52.6022L174.035 53.125L174.175 53.6485L176.107 53.1305ZM172.817 48.1083L173.104 46.1291L173.104 46.1291L172.817 48.1083ZM167.777 47.376L168.065 45.3967L167.777 47.376ZM164.765 45.1878L166.559 44.3027L166.559 44.3027L164.765 45.1878ZM157.131 41.5062C157.865 40.0197 159.984 40.0197 160.718 41.5062L164.305 39.7359C162.104 35.2764 155.745 35.2765 153.544 39.7359L157.131 41.5062ZM154.877 46.0729L157.131 41.5062L153.544 39.7359L151.29 44.3027L154.877 46.0729ZM150.36 49.3552C152.314 49.0712 154.003 47.8438 154.877 46.0729L151.29 44.3027C150.999 44.8929 150.436 45.3021 149.785 45.3967L150.36 49.3552ZM145.32 50.0875L150.36 49.3552L149.785 45.3967L144.745 46.129L145.32 50.0875ZM143.672 52.6022C143.366 51.4873 144.079 50.2678 145.32 50.0875L144.745 46.129C140.929 46.6835 138.927 50.4204 139.814 53.6588L143.672 52.6022ZM144.212 55.5934C143.643 55.0396 143.495 54.316 143.674 53.6485L139.811 52.6124C139.288 54.5634 139.732 56.8132 141.42 58.4578L144.212 55.5934ZM147.858 59.1481L144.212 55.5934L141.42 58.4578L145.066 62.0125L147.858 59.1481ZM149.478 61.9365C149.206 60.8919 148.654 59.9237 147.858 59.1481L145.066 62.0125C145.331 62.271 145.516 62.5933 145.606 62.9421L149.478 61.9365ZM148.723 67.3837L149.513 62.7774L145.571 62.1012L144.781 66.7075L148.723 67.3837ZM148.754 68.2398C148.688 67.9882 148.668 67.7025 148.723 67.3837L144.781 66.7075C144.629 67.5892 144.674 68.4518 144.885 69.2556L148.754 68.2398ZM148.723 69.4782L148.79 69.0858L144.848 68.4096L144.781 68.8021L148.723 69.4782ZM151.625 71.5866C150.158 72.358 148.443 71.1121 148.723 69.4782L144.781 68.8021C143.94 73.7035 149.085 77.4413 153.486 75.1271L151.625 71.5866ZM156.133 69.2168L151.625 71.5866L153.486 75.1271L157.994 72.7573L156.133 69.2168ZM161.717 69.2168C159.969 68.2978 157.881 68.2978 156.133 69.2168L157.994 72.7573C158.577 72.451 159.273 72.451 159.855 72.7573L161.717 69.2168ZM166.224 71.5866L161.717 69.2168L159.855 72.7573L164.363 75.1271L166.224 71.5866ZM169.126 69.4782C169.406 71.1121 167.692 72.358 166.224 71.5866L164.363 75.1271C168.765 77.4413 173.909 73.7035 173.069 68.8021L169.126 69.4782ZM169.059 69.0858L169.126 69.4782L173.069 68.8021L173.001 68.4096L169.059 69.0858ZM169.126 67.3837C169.181 67.7025 169.162 67.9882 169.096 68.2398L172.965 69.2556C173.176 68.4518 173.22 67.5892 173.069 66.7075L169.126 67.3837ZM168.336 62.7774L169.126 67.3837L173.069 66.7075L172.279 62.1012L168.336 62.7774ZM169.991 59.1481C169.195 59.9237 168.643 60.8919 168.372 61.9365L172.243 62.9421C172.334 62.5933 172.518 62.271 172.783 62.0125L169.991 59.1481ZM173.638 55.5934L169.991 59.1481L172.783 62.0125L176.43 58.4578L173.638 55.5934ZM174.175 53.6485C174.354 54.316 174.206 55.0396 173.638 55.5934L176.43 58.4578C178.117 56.8132 178.562 54.5634 178.038 52.6124L174.175 53.6485ZM172.529 50.0875C173.77 50.2678 174.483 51.4873 174.178 52.6022L178.036 53.6588C178.923 50.4204 176.92 46.6835 173.104 46.1291L172.529 50.0875ZM167.49 49.3552L172.529 50.0875L173.104 46.1291L168.065 45.3967L167.49 49.3552ZM162.972 46.0729C163.846 47.8438 165.535 49.0712 167.49 49.3552L168.065 45.3967C167.413 45.3021 166.85 44.8929 166.559 44.3027L162.972 46.0729ZM160.718 41.5062L162.972 46.0729L166.559 44.3027L164.305 39.7359L160.718 41.5062Z" fill="white" mask="url(#path-16-outside-3_231_71)"/>
<g filter="url(#filter3_d_231_71)">
<path d="M155.482 40.6477C156.949 37.6747 161.189 37.6747 162.656 40.6477L164.91 45.2144C165.493 46.395 166.619 47.2133 167.922 47.4026L172.961 48.1349C176.242 48.6117 177.552 52.6435 175.178 54.9577L171.531 58.5124C170.589 59.4313 170.158 60.7553 170.381 62.0529L171.242 67.0722C171.802 70.3399 168.373 72.8317 165.438 71.289L160.93 68.9191C159.765 68.3065 158.373 68.3065 157.208 68.9191L152.7 71.289C149.766 72.8317 146.336 70.3399 146.896 67.0722L147.757 62.0529C147.98 60.7553 147.55 59.4313 146.607 58.5124L142.96 54.9577C140.586 52.6435 141.896 48.6117 145.177 48.1349L150.217 47.4026C151.519 47.2133 152.646 46.395 153.228 45.2144L155.482 40.6477Z" fill="url(#paint9_linear_231_71)"/>
</g>
<g filter="url(#filter4_d_231_71)">
<mask id="path-19-outside-4_231_71" maskUnits="userSpaceOnUse" x="71.4365" y="83.6278" width="99" height="22" fill="black">
<rect fill="white" x="71.4365" y="83.6278" width="99" height="22"/>
<path d="M74.4605 100.578C73.8152 100.578 73.3165 100.402 72.9645 100.05C72.6125 99.6831 72.4365 99.1698 72.4365 98.5098V86.9598C72.4365 86.2851 72.6125 85.7718 72.9645 85.4198C73.3312 85.0531 73.8592 84.8698 74.5485 84.8698H84.6465C85.3359 84.8698 85.8565 85.0531 86.2085 85.4198C86.5752 85.7718 86.7585 86.2851 86.7585 86.9598V98.5098C86.7585 99.1698 86.5825 99.6831 86.2305 100.05C85.8932 100.402 85.3945 100.578 84.7345 100.578C84.0892 100.578 83.5905 100.402 83.2385 100.05C82.8865 99.6831 82.7105 99.1698 82.7105 98.5098V88.1698H76.4845V98.5098C76.4845 99.1698 76.3159 99.6831 75.9785 100.05C75.6412 100.402 75.1352 100.578 74.4605 100.578Z"/>
<path d="M97.0611 100.622C95.4917 100.622 94.1131 100.292 92.9251 99.6318C91.7371 98.9571 90.8131 98.0184 90.1531 96.8158C89.5077 95.6131 89.1851 94.2124 89.1851 92.6138C89.1851 91.4111 89.3684 90.3184 89.7351 89.3358C90.1164 88.3531 90.6517 87.5098 91.3411 86.8058C92.0451 86.1018 92.8811 85.5664 93.8491 85.1998C94.8171 84.8184 95.8877 84.6278 97.0611 84.6278C98.6304 84.6278 100.002 84.9578 101.175 85.6178C102.363 86.2778 103.287 87.2091 103.947 88.4118C104.607 89.5998 104.937 91.0004 104.937 92.6138C104.937 93.8164 104.746 94.9091 104.365 95.8918C103.998 96.8744 103.463 97.7251 102.759 98.4438C102.07 99.1478 101.241 99.6904 100.273 100.072C99.3051 100.438 98.2344 100.622 97.0611 100.622ZM97.0611 97.2338C97.8384 97.2338 98.4984 97.0504 99.0411 96.6838C99.5837 96.3171 100.002 95.7891 100.295 95.0998C100.588 94.4104 100.735 93.5818 100.735 92.6138C100.735 91.1618 100.412 90.0324 99.7671 89.2258C99.1217 88.4191 98.2197 88.0158 97.0611 88.0158C96.2984 88.0158 95.6384 88.1991 95.0811 88.5658C94.5384 88.9178 94.1204 89.4384 93.8271 90.1278C93.5337 90.8024 93.3871 91.6311 93.3871 92.6138C93.3871 94.0658 93.7097 95.2024 94.3551 96.0238C95.0004 96.8304 95.9024 97.2338 97.0611 97.2338Z"/>
<path d="M109.439 100.38C108.75 100.38 108.222 100.204 107.855 99.8518C107.503 99.4851 107.327 98.9644 107.327 98.2898V86.9598C107.327 86.2851 107.503 85.7718 107.855 85.4198C108.222 85.0531 108.75 84.8698 109.439 84.8698H117.513C118.026 84.8698 118.415 85.0018 118.679 85.2658C118.958 85.5298 119.097 85.9111 119.097 86.4098C119.097 86.9231 118.958 87.3191 118.679 87.5978C118.415 87.8618 118.026 87.9938 117.513 87.9938H111.199V90.8978H115.027C116.714 90.8978 118.041 91.3084 119.009 92.1298C119.992 92.9364 120.483 94.1024 120.483 95.6278C120.483 97.1531 119.992 98.3264 119.009 99.1478C118.041 99.9691 116.714 100.38 115.027 100.38H109.439ZM111.199 97.3218H114.477C115.225 97.3218 115.768 97.1824 116.105 96.9038C116.457 96.6251 116.633 96.1998 116.633 95.6278C116.633 95.0558 116.457 94.6378 116.105 94.3738C115.768 94.0951 115.225 93.9558 114.477 93.9558H111.199V97.3218Z"/>
<path d="M124.586 100.38C123.896 100.38 123.368 100.204 123.002 99.8518C122.65 99.4851 122.474 98.9644 122.474 98.2898V86.9598C122.474 86.2851 122.65 85.7718 123.002 85.4198C123.368 85.0531 123.896 84.8698 124.586 84.8698H132.044C132.572 84.8698 132.968 85.0018 133.232 85.2658C133.496 85.5298 133.628 85.9111 133.628 86.4098C133.628 86.9231 133.496 87.3191 133.232 87.5978C132.968 87.8618 132.572 87.9938 132.044 87.9938H126.346V90.9418H131.56C132.073 90.9418 132.462 91.0738 132.726 91.3378C133.004 91.6018 133.144 91.9904 133.144 92.5038C133.144 93.0171 133.004 93.4058 132.726 93.6698C132.462 93.9338 132.073 94.0658 131.56 94.0658H126.346V97.2558H132.044C132.572 97.2558 132.968 97.3951 133.232 97.6738C133.496 97.9378 133.628 98.3191 133.628 98.8178C133.628 99.3311 133.496 99.7198 133.232 99.9838C132.968 100.248 132.572 100.38 132.044 100.38H124.586Z"/>
<path d="M136.581 104.428C136.009 104.428 135.569 104.274 135.261 103.966C134.968 103.658 134.821 103.218 134.821 102.646V99.0378C134.821 97.8498 135.423 97.2558 136.625 97.2558H137.923L135.811 97.8278C136.633 97.1384 137.241 96.0604 137.637 94.5938C138.033 93.1124 138.231 91.2424 138.231 88.9838V86.9598C138.231 86.2851 138.407 85.7718 138.759 85.4198C139.126 85.0531 139.647 84.8698 140.321 84.8698H147.911C148.601 84.8698 149.121 85.0531 149.473 85.4198C149.84 85.7718 150.023 86.2851 150.023 86.9598V98.7078L148.549 97.2558H150.419C151.006 97.2558 151.453 97.4098 151.761 97.7178C152.069 98.0111 152.223 98.4511 152.223 99.0378V102.646C152.223 103.834 151.644 104.428 150.485 104.428C149.913 104.428 149.473 104.274 149.165 103.966C148.872 103.658 148.725 103.218 148.725 102.646V100.38H138.319V102.646C138.319 103.834 137.74 104.428 136.581 104.428ZM140.387 97.2558H145.975V87.9938H141.949V89.4238C141.949 91.2278 141.817 92.7751 141.553 94.0658C141.289 95.3418 140.901 96.4051 140.387 97.2558Z"/>
<path d="M154.846 100.578C154.391 100.578 154.01 100.475 153.702 100.27C153.394 100.05 153.203 99.7564 153.13 99.3898C153.057 99.0084 153.123 98.5831 153.328 98.1138L158.806 86.3218C159.07 85.7498 159.393 85.3318 159.774 85.0678C160.17 84.8038 160.617 84.6718 161.116 84.6718C161.615 84.6718 162.047 84.8038 162.414 85.0678C162.795 85.3318 163.125 85.7498 163.404 86.3218L168.882 98.1138C169.117 98.5831 169.197 99.0084 169.124 99.3898C169.065 99.7711 168.882 100.064 168.574 100.27C168.281 100.475 167.914 100.578 167.474 100.578C166.887 100.578 166.433 100.446 166.11 100.182C165.802 99.9178 165.523 99.4924 165.274 98.9058L164.086 96.1118L165.626 97.2338H156.562L158.124 96.1118L156.936 98.9058C156.672 99.4924 156.401 99.9178 156.122 100.182C155.843 100.446 155.418 100.578 154.846 100.578ZM161.072 89.0938L158.52 95.1878L157.904 94.1318H164.306L163.69 95.1878L161.116 89.0938H161.072Z"/>
</mask>
<path d="M74.4605 100.578C73.8152 100.578 73.3165 100.402 72.9645 100.05C72.6125 99.6831 72.4365 99.1698 72.4365 98.5098V86.9598C72.4365 86.2851 72.6125 85.7718 72.9645 85.4198C73.3312 85.0531 73.8592 84.8698 74.5485 84.8698H84.6465C85.3359 84.8698 85.8565 85.0531 86.2085 85.4198C86.5752 85.7718 86.7585 86.2851 86.7585 86.9598V98.5098C86.7585 99.1698 86.5825 99.6831 86.2305 100.05C85.8932 100.402 85.3945 100.578 84.7345 100.578C84.0892 100.578 83.5905 100.402 83.2385 100.05C82.8865 99.6831 82.7105 99.1698 82.7105 98.5098V88.1698H76.4845V98.5098C76.4845 99.1698 76.3159 99.6831 75.9785 100.05C75.6412 100.402 75.1352 100.578 74.4605 100.578Z" fill="white"/>
<path d="M97.0611 100.622C95.4917 100.622 94.1131 100.292 92.9251 99.6318C91.7371 98.9571 90.8131 98.0184 90.1531 96.8158C89.5077 95.6131 89.1851 94.2124 89.1851 92.6138C89.1851 91.4111 89.3684 90.3184 89.7351 89.3358C90.1164 88.3531 90.6517 87.5098 91.3411 86.8058C92.0451 86.1018 92.8811 85.5664 93.8491 85.1998C94.8171 84.8184 95.8877 84.6278 97.0611 84.6278C98.6304 84.6278 100.002 84.9578 101.175 85.6178C102.363 86.2778 103.287 87.2091 103.947 88.4118C104.607 89.5998 104.937 91.0004 104.937 92.6138C104.937 93.8164 104.746 94.9091 104.365 95.8918C103.998 96.8744 103.463 97.7251 102.759 98.4438C102.07 99.1478 101.241 99.6904 100.273 100.072C99.3051 100.438 98.2344 100.622 97.0611 100.622ZM97.0611 97.2338C97.8384 97.2338 98.4984 97.0504 99.0411 96.6838C99.5837 96.3171 100.002 95.7891 100.295 95.0998C100.588 94.4104 100.735 93.5818 100.735 92.6138C100.735 91.1618 100.412 90.0324 99.7671 89.2258C99.1217 88.4191 98.2197 88.0158 97.0611 88.0158C96.2984 88.0158 95.6384 88.1991 95.0811 88.5658C94.5384 88.9178 94.1204 89.4384 93.8271 90.1278C93.5337 90.8024 93.3871 91.6311 93.3871 92.6138C93.3871 94.0658 93.7097 95.2024 94.3551 96.0238C95.0004 96.8304 95.9024 97.2338 97.0611 97.2338Z" fill="white"/>
<path d="M109.439 100.38C108.75 100.38 108.222 100.204 107.855 99.8518C107.503 99.4851 107.327 98.9644 107.327 98.2898V86.9598C107.327 86.2851 107.503 85.7718 107.855 85.4198C108.222 85.0531 108.75 84.8698 109.439 84.8698H117.513C118.026 84.8698 118.415 85.0018 118.679 85.2658C118.958 85.5298 119.097 85.9111 119.097 86.4098C119.097 86.9231 118.958 87.3191 118.679 87.5978C118.415 87.8618 118.026 87.9938 117.513 87.9938H111.199V90.8978H115.027C116.714 90.8978 118.041 91.3084 119.009 92.1298C119.992 92.9364 120.483 94.1024 120.483 95.6278C120.483 97.1531 119.992 98.3264 119.009 99.1478C118.041 99.9691 116.714 100.38 115.027 100.38H109.439ZM111.199 97.3218H114.477C115.225 97.3218 115.768 97.1824 116.105 96.9038C116.457 96.6251 116.633 96.1998 116.633 95.6278C116.633 95.0558 116.457 94.6378 116.105 94.3738C115.768 94.0951 115.225 93.9558 114.477 93.9558H111.199V97.3218Z" fill="white"/>
<path d="M124.586 100.38C123.896 100.38 123.368 100.204 123.002 99.8518C122.65 99.4851 122.474 98.9644 122.474 98.2898V86.9598C122.474 86.2851 122.65 85.7718 123.002 85.4198C123.368 85.0531 123.896 84.8698 124.586 84.8698H132.044C132.572 84.8698 132.968 85.0018 133.232 85.2658C133.496 85.5298 133.628 85.9111 133.628 86.4098C133.628 86.9231 133.496 87.3191 133.232 87.5978C132.968 87.8618 132.572 87.9938 132.044 87.9938H126.346V90.9418H131.56C132.073 90.9418 132.462 91.0738 132.726 91.3378C133.004 91.6018 133.144 91.9904 133.144 92.5038C133.144 93.0171 133.004 93.4058 132.726 93.6698C132.462 93.9338 132.073 94.0658 131.56 94.0658H126.346V97.2558H132.044C132.572 97.2558 132.968 97.3951 133.232 97.6738C133.496 97.9378 133.628 98.3191 133.628 98.8178C133.628 99.3311 133.496 99.7198 133.232 99.9838C132.968 100.248 132.572 100.38 132.044 100.38H124.586Z" fill="white"/>
<path d="M136.581 104.428C136.009 104.428 135.569 104.274 135.261 103.966C134.968 103.658 134.821 103.218 134.821 102.646V99.0378C134.821 97.8498 135.423 97.2558 136.625 97.2558H137.923L135.811 97.8278C136.633 97.1384 137.241 96.0604 137.637 94.5938C138.033 93.1124 138.231 91.2424 138.231 88.9838V86.9598C138.231 86.2851 138.407 85.7718 138.759 85.4198C139.126 85.0531 139.647 84.8698 140.321 84.8698H147.911C148.601 84.8698 149.121 85.0531 149.473 85.4198C149.84 85.7718 150.023 86.2851 150.023 86.9598V98.7078L148.549 97.2558H150.419C151.006 97.2558 151.453 97.4098 151.761 97.7178C152.069 98.0111 152.223 98.4511 152.223 99.0378V102.646C152.223 103.834 151.644 104.428 150.485 104.428C149.913 104.428 149.473 104.274 149.165 103.966C148.872 103.658 148.725 103.218 148.725 102.646V100.38H138.319V102.646C138.319 103.834 137.74 104.428 136.581 104.428ZM140.387 97.2558H145.975V87.9938H141.949V89.4238C141.949 91.2278 141.817 92.7751 141.553 94.0658C141.289 95.3418 140.901 96.4051 140.387 97.2558Z" fill="white"/>
<path d="M154.846 100.578C154.391 100.578 154.01 100.475 153.702 100.27C153.394 100.05 153.203 99.7564 153.13 99.3898C153.057 99.0084 153.123 98.5831 153.328 98.1138L158.806 86.3218C159.07 85.7498 159.393 85.3318 159.774 85.0678C160.17 84.8038 160.617 84.6718 161.116 84.6718C161.615 84.6718 162.047 84.8038 162.414 85.0678C162.795 85.3318 163.125 85.7498 163.404 86.3218L168.882 98.1138C169.117 98.5831 169.197 99.0084 169.124 99.3898C169.065 99.7711 168.882 100.064 168.574 100.27C168.281 100.475 167.914 100.578 167.474 100.578C166.887 100.578 166.433 100.446 166.11 100.182C165.802 99.9178 165.523 99.4924 165.274 98.9058L164.086 96.1118L165.626 97.2338H156.562L158.124 96.1118L156.936 98.9058C156.672 99.4924 156.401 99.9178 156.122 100.182C155.843 100.446 155.418 100.578 154.846 100.578ZM161.072 89.0938L158.52 95.1878L157.904 94.1318H164.306L163.69 95.1878L161.116 89.0938H161.072Z" fill="white"/>
<path d="M74.4605 100.578C73.8152 100.578 73.3165 100.402 72.9645 100.05C72.6125 99.6831 72.4365 99.1698 72.4365 98.5098V86.9598C72.4365 86.2851 72.6125 85.7718 72.9645 85.4198C73.3312 85.0531 73.8592 84.8698 74.5485 84.8698H84.6465C85.3359 84.8698 85.8565 85.0531 86.2085 85.4198C86.5752 85.7718 86.7585 86.2851 86.7585 86.9598V98.5098C86.7585 99.1698 86.5825 99.6831 86.2305 100.05C85.8932 100.402 85.3945 100.578 84.7345 100.578C84.0892 100.578 83.5905 100.402 83.2385 100.05C82.8865 99.6831 82.7105 99.1698 82.7105 98.5098V88.1698H76.4845V98.5098C76.4845 99.1698 76.3159 99.6831 75.9785 100.05C75.6412 100.402 75.1352 100.578 74.4605 100.578Z" stroke="#B20D78" stroke-width="2" mask="url(#path-19-outside-4_231_71)"/>
<path d="M97.0611 100.622C95.4917 100.622 94.1131 100.292 92.9251 99.6318C91.7371 98.9571 90.8131 98.0184 90.1531 96.8158C89.5077 95.6131 89.1851 94.2124 89.1851 92.6138C89.1851 91.4111 89.3684 90.3184 89.7351 89.3358C90.1164 88.3531 90.6517 87.5098 91.3411 86.8058C92.0451 86.1018 92.8811 85.5664 93.8491 85.1998C94.8171 84.8184 95.8877 84.6278 97.0611 84.6278C98.6304 84.6278 100.002 84.9578 101.175 85.6178C102.363 86.2778 103.287 87.2091 103.947 88.4118C104.607 89.5998 104.937 91.0004 104.937 92.6138C104.937 93.8164 104.746 94.9091 104.365 95.8918C103.998 96.8744 103.463 97.7251 102.759 98.4438C102.07 99.1478 101.241 99.6904 100.273 100.072C99.3051 100.438 98.2344 100.622 97.0611 100.622ZM97.0611 97.2338C97.8384 97.2338 98.4984 97.0504 99.0411 96.6838C99.5837 96.3171 100.002 95.7891 100.295 95.0998C100.588 94.4104 100.735 93.5818 100.735 92.6138C100.735 91.1618 100.412 90.0324 99.7671 89.2258C99.1217 88.4191 98.2197 88.0158 97.0611 88.0158C96.2984 88.0158 95.6384 88.1991 95.0811 88.5658C94.5384 88.9178 94.1204 89.4384 93.8271 90.1278C93.5337 90.8024 93.3871 91.6311 93.3871 92.6138C93.3871 94.0658 93.7097 95.2024 94.3551 96.0238C95.0004 96.8304 95.9024 97.2338 97.0611 97.2338Z" stroke="#B20D78" stroke-width="2" mask="url(#path-19-outside-4_231_71)"/>
<path d="M109.439 100.38C108.75 100.38 108.222 100.204 107.855 99.8518C107.503 99.4851 107.327 98.9644 107.327 98.2898V86.9598C107.327 86.2851 107.503 85.7718 107.855 85.4198C108.222 85.0531 108.75 84.8698 109.439 84.8698H117.513C118.026 84.8698 118.415 85.0018 118.679 85.2658C118.958 85.5298 119.097 85.9111 119.097 86.4098C119.097 86.9231 118.958 87.3191 118.679 87.5978C118.415 87.8618 118.026 87.9938 117.513 87.9938H111.199V90.8978H115.027C116.714 90.8978 118.041 91.3084 119.009 92.1298C119.992 92.9364 120.483 94.1024 120.483 95.6278C120.483 97.1531 119.992 98.3264 119.009 99.1478C118.041 99.9691 116.714 100.38 115.027 100.38H109.439ZM111.199 97.3218H114.477C115.225 97.3218 115.768 97.1824 116.105 96.9038C116.457 96.6251 116.633 96.1998 116.633 95.6278C116.633 95.0558 116.457 94.6378 116.105 94.3738C115.768 94.0951 115.225 93.9558 114.477 93.9558H111.199V97.3218Z" stroke="#B20D78" stroke-width="2" mask="url(#path-19-outside-4_231_71)"/>
<path d="M124.586 100.38C123.896 100.38 123.368 100.204 123.002 99.8518C122.65 99.4851 122.474 98.9644 122.474 98.2898V86.9598C122.474 86.2851 122.65 85.7718 123.002 85.4198C123.368 85.0531 123.896 84.8698 124.586 84.8698H132.044C132.572 84.8698 132.968 85.0018 133.232 85.2658C133.496 85.5298 133.628 85.9111 133.628 86.4098C133.628 86.9231 133.496 87.3191 133.232 87.5978C132.968 87.8618 132.572 87.9938 132.044 87.9938H126.346V90.9418H131.56C132.073 90.9418 132.462 91.0738 132.726 91.3378C133.004 91.6018 133.144 91.9904 133.144 92.5038C133.144 93.0171 133.004 93.4058 132.726 93.6698C132.462 93.9338 132.073 94.0658 131.56 94.0658H126.346V97.2558H132.044C132.572 97.2558 132.968 97.3951 133.232 97.6738C133.496 97.9378 133.628 98.3191 133.628 98.8178C133.628 99.3311 133.496 99.7198 133.232 99.9838C132.968 100.248 132.572 100.38 132.044 100.38H124.586Z" stroke="#B20D78" stroke-width="2" mask="url(#path-19-outside-4_231_71)"/>
<path d="M136.581 104.428C136.009 104.428 135.569 104.274 135.261 103.966C134.968 103.658 134.821 103.218 134.821 102.646V99.0378C134.821 97.8498 135.423 97.2558 136.625 97.2558H137.923L135.811 97.8278C136.633 97.1384 137.241 96.0604 137.637 94.5938C138.033 93.1124 138.231 91.2424 138.231 88.9838V86.9598C138.231 86.2851 138.407 85.7718 138.759 85.4198C139.126 85.0531 139.647 84.8698 140.321 84.8698H147.911C148.601 84.8698 149.121 85.0531 149.473 85.4198C149.84 85.7718 150.023 86.2851 150.023 86.9598V98.7078L148.549 97.2558H150.419C151.006 97.2558 151.453 97.4098 151.761 97.7178C152.069 98.0111 152.223 98.4511 152.223 99.0378V102.646C152.223 103.834 151.644 104.428 150.485 104.428C149.913 104.428 149.473 104.274 149.165 103.966C148.872 103.658 148.725 103.218 148.725 102.646V100.38H138.319V102.646C138.319 103.834 137.74 104.428 136.581 104.428ZM140.387 97.2558H145.975V87.9938H141.949V89.4238C141.949 91.2278 141.817 92.7751 141.553 94.0658C141.289 95.3418 140.901 96.4051 140.387 97.2558Z" stroke="#B20D78" stroke-width="2" mask="url(#path-19-outside-4_231_71)"/>
<path d="M154.846 100.578C154.391 100.578 154.01 100.475 153.702 100.27C153.394 100.05 153.203 99.7564 153.13 99.3898C153.057 99.0084 153.123 98.5831 153.328 98.1138L158.806 86.3218C159.07 85.7498 159.393 85.3318 159.774 85.0678C160.17 84.8038 160.617 84.6718 161.116 84.6718C161.615 84.6718 162.047 84.8038 162.414 85.0678C162.795 85.3318 163.125 85.7498 163.404 86.3218L168.882 98.1138C169.117 98.5831 169.197 99.0084 169.124 99.3898C169.065 99.7711 168.882 100.064 168.574 100.27C168.281 100.475 167.914 100.578 167.474 100.578C166.887 100.578 166.433 100.446 166.11 100.182C165.802 99.9178 165.523 99.4924 165.274 98.9058L164.086 96.1118L165.626 97.2338H156.562L158.124 96.1118L156.936 98.9058C156.672 99.4924 156.401 99.9178 156.122 100.182C155.843 100.446 155.418 100.578 154.846 100.578ZM161.072 89.0938L158.52 95.1878L157.904 94.1318H164.306L163.69 95.1878L161.116 89.0938H161.072Z" stroke="#B20D78" stroke-width="2" mask="url(#path-19-outside-4_231_71)"/>
</g>
<defs>
<filter id="filter0_d_231_71" x="22.7988" y="64.3798" width="196.459" height="71" filterUnits="userSpaceOnUse" color-interpolation-filters="sRGB">
<feFlood flood-opacity="0" result="BackgroundImageFix"/>
<feColorMatrix in="SourceAlpha" type="matrix" values="0 0 0 0 0 0 0 0 0 0 0 0 0 0 0 0 0 0 127 0" result="hardAlpha"/>
<feOffset dy="3"/>
<feComposite in2="hardAlpha" operator="out"/>
<feColorMatrix type="matrix" values="0 0 0 0 0.827451 0 0 0 0 0.847059 0 0 0 0 1 0 0 0 1 0"/>
<feBlend mode="normal" in2="BackgroundImageFix" result="effect1_dropShadow_231_71"/>
<feBlend mode="normal" in="SourceGraphic" in2="effect1_dropShadow_231_71" result="shape"/>
</filter>
<filter id="filter1_d_231_71" x="98.3245" y="21.418" width="43.408" height="44.6755" filterUnits="userSpaceOnUse" color-interpolation-filters="sRGB">
<feFlood flood-opacity="0" result="BackgroundImageFix"/>
<feColorMatrix in="SourceAlpha" type="matrix" values="0 0 0 0 0 0 0 0 0 0 0 0 0 0 0 0 0 0 127 0" result="hardAlpha"/>
<feOffset dy="3"/>
<feComposite in2="hardAlpha" operator="out"/>
<feColorMatrix type="matrix" values="0 0 0 0 1 0 0 0 0 0.392 0 0 0 0 0.2 0 0 0 1 0"/>
<feBlend mode="normal" in2="BackgroundImageFix" result="effect1_dropShadow_231_71"/>
<feBlend mode="normal" in="SourceGraphic" in2="effect1_dropShadow_231_71" result="shape"/>
</filter>
<filter id="filter2_d_231_71" x="62.7478" y="38.418" width="34.6426" height="36.3393" filterUnits="userSpaceOnUse" color-interpolation-filters="sRGB">
<feFlood flood-opacity="0" result="BackgroundImageFix"/>
<feColorMatrix in="SourceAlpha" type="matrix" values="0 0 0 0 0 0 0 0 0 0 0 0 0 0 0 0 0 0 127 0" result="hardAlpha"/>
<feOffset dy="3"/>
<feComposite in2="hardAlpha" operator="out"/>
<feColorMatrix type="matrix" values="0 0 0 0 1 0 0 0 0 0.392 0 0 0 0 0.2 0 0 0 1 0"/>
<feBlend mode="normal" in2="BackgroundImageFix" result="effect1_dropShadow_231_71"/>
<feBlend mode="normal" in="SourceGraphic" in2="effect1_dropShadow_231_71" result="shape"/>
</filter>
<filter id="filter3_d_231_71" x="141.748" y="38.418" width="34.6426" height="36.3393" filterUnits="userSpaceOnUse" color-interpolation-filters="sRGB">
<feFlood flood-opacity="0" result="BackgroundImageFix"/>
<feColorMatrix in="SourceAlpha" type="matrix" values="0 0 0 0 0 0 0 0 0 0 0 0 0 0 0 0 0 0 127 0" result="hardAlpha"/>
<feOffset dy="3"/>
<feComposite in2="hardAlpha" operator="out"/>
<feColorMatrix type="matrix" values="0 0 0 0 1 0 0 0 0 0.392 0 0 0 0 0.2 0 0 0 1 0"/>
<feBlend mode="normal" in2="BackgroundImageFix" result="effect1_dropShadow_231_71"/>
<feBlend mode="normal" in="SourceGraphic" in2="effect1_dropShadow_231_71" result="shape"/>
</filter>
<filter id="filter4_d_231_71" x="71.4365" y="83.6278" width="98.7139" height="23.8" filterUnits="userSpaceOnUse" color-interpolation-filters="sRGB">
<feFlood flood-opacity="0" result="BackgroundImageFix"/>
<feColorMatrix in="SourceAlpha" type="matrix" values="0 0 0 0 0 0 0 0 0 0 0 0 0 0 0 0 0 0 127 0" result="hardAlpha"/>
<feOffset dy="2"/>
<feComposite in2="hardAlpha" operator="out"/>
<feColorMatrix type="matrix" values="0 0 0 0 0.698039 0 0 0 0 0.0509804 0 0 0 0 0.470588 0 0 0 1 0"/>
<feBlend mode="normal" in2="BackgroundImageFix" result="effect1_dropShadow_231_71"/>
<feBlend mode="normal" in="SourceGraphic" in2="effect1_dropShadow_231_71" result="shape"/>
</filter>
<radialGradient id="paint0_radial_231_71" cx="0" cy="0" r="1" gradientUnits="userSpaceOnUse" gradientTransform="translate(123.486 65.1815) rotate(89.8427) scale(54.4633 123.309)">
<stop stop-color="#FFEE37" stop-opacity="0.56"/>
<stop offset="1" stop-color="#FFF8AC" stop-opacity="0"/>
</radialGradient>
<linearGradient id="paint1_linear_231_71" x1="41.0286" y1="81.3798" x2="41.0286" y2="130.38" gradientUnits="userSpaceOnUse">
<stop stop-color="#FE56E1"/>
<stop offset="1" stop-color="#D81091"/>
</linearGradient>
<linearGradient id="paint2_linear_231_71" x1="201.029" y1="81.3798" x2="201.029" y2="130.38" gradientUnits="userSpaceOnUse">
<stop stop-color="#FE56E1"/>
<stop offset="1" stop-color="#D81091"/>
</linearGradient>
<linearGradient id="paint3_linear_231_71" x1="120.529" y1="64.3798" x2="120.529" y2="115.38" gradientUnits="userSpaceOnUse">
<stop stop-color="#FFA4EB"/>
<stop offset="1" stop-color="#ED36CA"/>
</linearGradient>
<linearGradient id="paint4_linear_231_71" x1="119.855" y1="17.29" x2="119.855" y2="70.9449" gradientUnits="userSpaceOnUse">
<stop offset="0.25" stop-color="#FFEE37"/>
<stop offset="1" stop-color="#F78A3B"/>
</linearGradient>
<linearGradient id="paint5_linear_231_71" x1="120.029" y1="16.3798" x2="120.029" y2="71.6771" gradientUnits="userSpaceOnUse">
<stop offset="0.25" stop-color="#FFEE37"/>
<stop offset="1" stop-color="#F78A3B"/>
</linearGradient>
<linearGradient id="paint6_linear_231_71" x1="79.9246" y1="35.107" x2="79.9246" y2="78.1313" gradientUnits="userSpaceOnUse">
<stop offset="0.25" stop-color="#FFEE37"/>
<stop offset="1" stop-color="#F78A3B"/>
</linearGradient>
<linearGradient id="paint7_linear_231_71" x1="80.0691" y1="33.3798" x2="80.0691" y2="79.4608" gradientUnits="userSpaceOnUse">
<stop offset="0.25" stop-color="#FFEE37"/>
<stop offset="1" stop-color="#F78A3B"/>
</linearGradient>
<linearGradient id="paint8_linear_231_71" x1="158.925" y1="35.107" x2="158.925" y2="78.1313" gradientUnits="userSpaceOnUse">
<stop offset="0.25" stop-color="#FFEE37"/>
<stop offset="1" stop-color="#F78A3B"/>
</linearGradient>
<linearGradient id="paint9_linear_231_71" x1="159.069" y1="33.3798" x2="159.069" y2="79.4608" gradientUnits="userSpaceOnUse">
<stop offset="0.25" stop-color="#FFEE37"/>
<stop offset="1" stop-color="#F78A3B"/>
</linearGradient>
</defs>
</svg>
