<svg xmlns="http://www.w3.org/2000/svg" viewBox="0 0 25 25" width="25" height="25">
	<style>
		tspan { white-space:pre }
		.shp0 { fill: #ffffff } 
	</style>
	<g id="say hello">
		<g id="social buttons">
			<path id="Dribbble" class="shp0" d="M12.25 24.43C5.74 24.43 0.45 19.07 0.45 12.48C0.45 5.89 5.74 0.53 12.25 0.53C18.77 0.53 24.06 5.89 24.06 12.48C24.06 19.07 18.77 24.43 12.25 24.43ZM12.25 2.03C6.56 2.03 1.92 6.72 1.92 12.48C1.92 18.25 6.56 22.94 12.25 22.94C17.95 22.94 22.59 18.25 22.59 12.48C22.59 6.72 17.95 2.03 12.25 2.03ZM17 23.34C16.61 23.34 16.29 23.04 16.26 22.65C16.26 22.6 15.81 17.2 12.68 11.12C9.55 5.02 7.41 2.7 7.39 2.68C7.11 2.38 7.12 1.91 7.42 1.62C7.72 1.34 8.18 1.35 8.46 1.65C8.55 1.75 10.74 4.11 13.99 10.43C17.27 16.8 17.72 22.3 17.73 22.54C17.76 22.95 17.46 23.31 17.05 23.34C17.03 23.34 17.01 23.34 17 23.34ZM3.97 12.1C2.41 12.1 1.47 11.95 1.38 11.93C0.98 11.87 0.7 11.48 0.77 11.08C0.83 10.67 1.21 10.39 1.62 10.46C1.66 10.47 6.42 11.2 12.48 9.17C18.24 7.25 18.96 4.12 18.96 4.09C19.05 3.69 19.44 3.43 19.83 3.51C20.23 3.59 20.49 3.97 20.41 4.37C20.38 4.53 19.61 8.36 12.94 10.59C9.26 11.83 6.06 12.1 3.97 12.1ZM5.13 21.32C5.03 21.32 4.93 21.3 4.83 21.26C4.46 21.09 4.29 20.65 4.45 20.28C4.52 20.11 6.24 16.27 11.66 13.78C17.69 11.02 22.88 12.81 23.1 12.89C23.48 13.02 23.68 13.45 23.55 13.84C23.41 14.23 22.99 14.43 22.61 14.3L22.61 14.3C22.56 14.28 17.74 12.64 12.27 15.14C7.36 17.39 5.82 20.84 5.81 20.88C5.68 21.16 5.41 21.32 5.13 21.32Z" />
		</g>
	</g>
</svg>