<svg xmlns="http://www.w3.org/2000/svg" viewBox="0 0 13 24" width="13" height="24">
	<style>
		tspan { white-space:pre }
		.shp0 { fill: #ffffff } 
	</style>
	<g id="say hello">
		<g id="social buttons">
			<path id="Facebook" class="shp0" d="M8.12 2.05C8.21 2.05 8.26 2.05 8.26 2.05L10.22 2.05L10.21 4.31L8.26 4.31C7.19 4.31 7.21 5.23 7.21 5.23L7.21 8.81L11.01 8.81L10.48 11.07L7.2 11.07L7.2 22.36L4.95 22.36L4.95 11.07L1.96 11.07L1.95 8.81L4.95 8.81C4.95 8.81 4.95 6.05 4.95 5.3C4.95 2.24 7.49 2.05 8.12 2.05M10.22 2.05L10.22 2.05M8.12 0.54L8.12 0.54C7.58 0.54 6.52 0.63 5.52 1.23C4.58 1.8 3.45 2.97 3.45 5.3L3.45 7.3L1.95 7.3C1.55 7.3 1.17 7.46 0.89 7.75C0.61 8.03 0.45 8.42 0.45 8.82L0.46 11.07C0.46 11.9 1.13 12.58 1.96 12.58L3.45 12.58L3.45 22.36C3.45 23.2 4.12 23.87 4.95 23.87L7.2 23.87C8.03 23.87 8.7 23.2 8.7 22.36L8.7 12.58L10.48 12.58C11.14 12.58 11.73 12.13 11.92 11.49L12.45 9.24C12.58 8.78 12.49 8.29 12.21 7.91C11.93 7.53 11.48 7.3 11.01 7.3L8.72 7.3L8.72 5.82L10.21 5.82C11.03 5.82 11.71 5.15 11.71 4.32L11.72 2.13C11.72 2.1 11.72 2.08 11.72 2.05C11.72 1.22 11.05 0.54 10.22 0.54L10.22 0.54L8.3 0.54C8.26 0.54 8.19 0.54 8.12 0.54L8.12 0.54Z" />
		</g>
	</g>
</svg>