<svg xmlns="http://www.w3.org/2000/svg" viewBox="0 0 24 19" width="24" height="19">
	<style>
		tspan { white-space:pre }
		.shp0 { fill: #ffffff } 
	</style>
	<g id="say hello">
		<g id="social buttons">
			<path id="Twitter" class="shp0" d="M15.54 1.73C16.71 1.73 17.76 2.21 18.5 2.97C19.41 2.79 20.28 2.47 21.06 2.02C20.76 2.93 20.12 3.7 19.28 4.18C20.1 4.09 20.88 3.88 21.61 3.56C21.06 4.35 20.38 5.04 19.59 5.59C19.6 5.76 19.6 5.93 19.6 6.1C19.6 11.27 15.53 17.24 8.1 17.24C5.82 17.24 3.69 16.59 1.9 15.48C2.22 15.51 2.54 15.53 2.87 15.53C4.76 15.53 6.5 14.91 7.89 13.85C6.12 13.82 4.62 12.69 4.11 11.14C4.36 11.18 4.61 11.21 4.87 11.21C5.24 11.21 5.6 11.16 5.94 11.07C4.09 10.71 2.69 9.13 2.69 7.23C2.69 7.22 2.69 7.2 2.69 7.18C3.24 7.48 3.86 7.65 4.53 7.67C3.44 6.97 2.73 5.77 2.73 4.41C2.73 3.7 2.93 3.02 3.27 2.45C5.27 4.81 8.25 6.37 11.61 6.54C11.54 6.25 11.5 5.95 11.5 5.65C11.5 3.48 13.31 1.73 15.54 1.73M21.61 3.56L21.61 3.56M15.54 0.33C12.78 0.33 10.49 2.34 10.14 4.94C7.88 4.49 5.83 3.3 4.35 1.54C4.08 1.22 3.69 1.04 3.27 1.04C3.24 1.04 3.2 1.04 3.16 1.05C2.71 1.08 2.3 1.33 2.07 1.72C1.58 2.54 1.32 3.47 1.32 4.41C1.32 5.05 1.43 5.66 1.65 6.24C1.42 6.5 1.29 6.83 1.29 7.18L1.29 7.23C1.29 8.61 1.83 9.88 2.74 10.84C2.68 11.08 2.7 11.33 2.77 11.58C3.09 12.52 3.65 13.34 4.39 13.96C3.9 14.07 3.39 14.13 2.87 14.13C2.59 14.13 2.32 14.11 2.07 14.08C2.01 14.07 1.96 14.07 1.9 14.07C1.31 14.07 0.77 14.44 0.57 15.01C0.36 15.63 0.6 16.32 1.16 16.67C3.24 17.96 5.64 18.64 8.1 18.64C16.1 18.64 20.91 12.39 21.01 6.28C21.66 5.74 22.24 5.11 22.73 4.41C22.91 4.18 23.01 3.88 23.01 3.56C23.01 3.09 22.78 2.66 22.41 2.41C22.57 1.87 22.39 1.29 21.95 0.93C21.69 0.72 21.38 0.61 21.06 0.61C20.82 0.61 20.58 0.68 20.36 0.8C19.89 1.07 19.4 1.28 18.87 1.43C17.93 0.72 16.75 0.33 15.54 0.33L15.54 0.33Z" />
		</g>
	</g>
</svg>